<mxfile host="65bd71144e">
    <diagram id="yOy2s86FtrnzUSUgZAdn" name="PÃ¡gina-1">
        <mxGraphModel dx="461" dy="357" grid="1" gridSize="10" guides="1" tooltips="1" connect="1" arrows="1" fold="1" page="1" pageScale="1" pageWidth="827" pageHeight="1169" math="0" shadow="0">
            <root>
                <mxCell id="0"/>
                <mxCell id="1" parent="0"/>
                <mxCell id="7" value="" style="edgeStyle=none;html=1;fontFamily=Comic Sans MS;fontSize=14;" edge="1" parent="1" source="3" target="4">
                    <mxGeometry relative="1" as="geometry"/>
                </mxCell>
                <mxCell id="3" value="Incio" style="ellipse;whiteSpace=wrap;html=1;fillColor=#008a00;fontColor=#ffffff;strokeColor=#005700;fontFamily=Comic Sans MS;fontSize=14;" vertex="1" parent="1">
                    <mxGeometry x="190" y="70" width="120" height="80" as="geometry"/>
                </mxCell>
                <mxCell id="6" value="" style="edgeStyle=none;html=1;fontFamily=Comic Sans MS;fontSize=14;" edge="1" parent="1" source="4" target="5">
                    <mxGeometry relative="1" as="geometry"/>
                </mxCell>
                <mxCell id="4" value="d" style="shape=parallelogram;perimeter=parallelogramPerimeter;whiteSpace=wrap;html=1;fixedSize=1;fontFamily=Comic Sans MS;fontSize=14;fillColor=#0050ef;fontColor=#ffffff;strokeColor=#001DBC;" vertex="1" parent="1">
                    <mxGeometry x="190" y="190" width="120" height="60" as="geometry"/>
                </mxCell>
                <mxCell id="12" style="edgeStyle=none;html=1;entryX=0.5;entryY=0;entryDx=0;entryDy=0;fontFamily=Comic Sans MS;fontSize=14;" edge="1" parent="1" source="5" target="11">
                    <mxGeometry relative="1" as="geometry">
                        <Array as="points">
                            <mxPoint x="110" y="345"/>
                        </Array>
                    </mxGeometry>
                </mxCell>
                <mxCell id="13" style="edgeStyle=none;html=1;entryX=0.5;entryY=0;entryDx=0;entryDy=0;fontFamily=Comic Sans MS;fontSize=14;" edge="1" parent="1" source="5" target="8">
                    <mxGeometry relative="1" as="geometry">
                        <Array as="points">
                            <mxPoint x="380" y="345"/>
                        </Array>
                    </mxGeometry>
                </mxCell>
                <mxCell id="5" value="d &amp;gt;= 10000 and d&amp;lt;100000" style="rhombus;whiteSpace=wrap;html=1;fontFamily=Comic Sans MS;fontSize=14;fillColor=#6a00ff;fontColor=#ffffff;strokeColor=#3700CC;" vertex="1" parent="1">
                    <mxGeometry x="180" y="290" width="140" height="110" as="geometry"/>
                </mxCell>
                <mxCell id="14" style="edgeStyle=none;html=1;entryX=0.5;entryY=0;entryDx=0;entryDy=0;fontFamily=Comic Sans MS;fontSize=14;" edge="1" parent="1" source="8" target="10">
                    <mxGeometry relative="1" as="geometry">
                        <Array as="points">
                            <mxPoint x="300" y="480"/>
                        </Array>
                    </mxGeometry>
                </mxCell>
                <mxCell id="15" style="edgeStyle=none;html=1;entryX=0.5;entryY=0;entryDx=0;entryDy=0;fontFamily=Comic Sans MS;fontSize=14;" edge="1" parent="1" source="8" target="9">
                    <mxGeometry relative="1" as="geometry">
                        <Array as="points">
                            <mxPoint x="500" y="480"/>
                        </Array>
                    </mxGeometry>
                </mxCell>
                <mxCell id="8" value="d1=d5 and d2=d4" style="rhombus;whiteSpace=wrap;html=1;fontFamily=Comic Sans MS;fontSize=14;fillColor=#1ba1e2;fontColor=#ffffff;strokeColor=#006EAF;" vertex="1" parent="1">
                    <mxGeometry x="320" y="430" width="120" height="100" as="geometry"/>
                </mxCell>
                <mxCell id="19" style="edgeStyle=none;html=1;entryX=0.5;entryY=0;entryDx=0;entryDy=0;fontFamily=Comic Sans MS;fontSize=14;" edge="1" parent="1" source="9" target="16">
                    <mxGeometry relative="1" as="geometry">
                        <Array as="points">
                            <mxPoint x="500" y="640"/>
                            <mxPoint x="240" y="640"/>
                        </Array>
                    </mxGeometry>
                </mxCell>
                <mxCell id="9" value="dc =&quot;es de 5 digitos capicua&quot;" style="rounded=1;whiteSpace=wrap;html=1;fontFamily=Comic Sans MS;fontSize=14;fillColor=#e3c800;fontColor=#000000;strokeColor=#B09500;" vertex="1" parent="1">
                    <mxGeometry x="440" y="550" width="120" height="60" as="geometry"/>
                </mxCell>
                <mxCell id="18" style="edgeStyle=none;html=1;entryX=0.5;entryY=0;entryDx=0;entryDy=0;fontFamily=Comic Sans MS;fontSize=14;" edge="1" parent="1" source="10" target="16">
                    <mxGeometry relative="1" as="geometry">
                        <Array as="points">
                            <mxPoint x="300" y="640"/>
                            <mxPoint x="240" y="640"/>
                        </Array>
                    </mxGeometry>
                </mxCell>
                <mxCell id="10" value="dc=&quot;es de 5 dijitos pero no es capicua&quot;" style="rounded=1;whiteSpace=wrap;html=1;fontFamily=Comic Sans MS;fontSize=14;fillColor=#e3c800;fontColor=#000000;strokeColor=#B09500;" vertex="1" parent="1">
                    <mxGeometry x="240" y="550" width="120" height="60" as="geometry"/>
                </mxCell>
                <mxCell id="17" style="edgeStyle=none;html=1;fontFamily=Comic Sans MS;fontSize=14;entryX=0.5;entryY=0;entryDx=0;entryDy=0;" edge="1" parent="1" source="11" target="16">
                    <mxGeometry relative="1" as="geometry">
                        <mxPoint x="240" y="680" as="targetPoint"/>
                        <Array as="points">
                            <mxPoint x="110" y="630"/>
                            <mxPoint x="240" y="630"/>
                        </Array>
                    </mxGeometry>
                </mxCell>
                <mxCell id="11" value="dc= &quot; no es un numero de 5 dijitos" style="rounded=1;whiteSpace=wrap;html=1;fontFamily=Comic Sans MS;fontSize=14;fillColor=#e3c800;fontColor=#000000;strokeColor=#B09500;" vertex="1" parent="1">
                    <mxGeometry x="50" y="430" width="120" height="60" as="geometry"/>
                </mxCell>
                <mxCell id="26" value="" style="edgeStyle=none;html=1;fontFamily=Comic Sans MS;fontSize=14;" edge="1" parent="1" source="16" target="25">
                    <mxGeometry relative="1" as="geometry"/>
                </mxCell>
                <mxCell id="16" value="d,dc" style="shape=document;whiteSpace=wrap;html=1;boundedLbl=1;fontFamily=Comic Sans MS;fontSize=14;fillColor=#a20025;fontColor=#ffffff;strokeColor=#6F0000;" vertex="1" parent="1">
                    <mxGeometry x="180" y="690" width="120" height="80" as="geometry"/>
                </mxCell>
                <mxCell id="20" value="F" style="text;html=1;strokeColor=none;fillColor=none;align=center;verticalAlign=middle;whiteSpace=wrap;rounded=0;fontFamily=Comic Sans MS;fontSize=14;" vertex="1" parent="1">
                    <mxGeometry x="120" y="300" width="60" height="30" as="geometry"/>
                </mxCell>
                <mxCell id="22" value="V" style="text;html=1;strokeColor=none;fillColor=none;align=center;verticalAlign=middle;whiteSpace=wrap;rounded=0;fontFamily=Comic Sans MS;fontSize=14;" vertex="1" parent="1">
                    <mxGeometry x="330" y="300" width="60" height="30" as="geometry"/>
                </mxCell>
                <mxCell id="23" value="F" style="text;html=1;strokeColor=none;fillColor=none;align=center;verticalAlign=middle;whiteSpace=wrap;rounded=0;fontFamily=Comic Sans MS;fontSize=14;" vertex="1" parent="1">
                    <mxGeometry x="280" y="445" width="60" height="30" as="geometry"/>
                </mxCell>
                <mxCell id="24" value="V" style="text;html=1;strokeColor=none;fillColor=none;align=center;verticalAlign=middle;whiteSpace=wrap;rounded=0;fontFamily=Comic Sans MS;fontSize=14;" vertex="1" parent="1">
                    <mxGeometry x="440" y="440" width="60" height="30" as="geometry"/>
                </mxCell>
                <mxCell id="25" value="FIN" style="ellipse;whiteSpace=wrap;html=1;fontFamily=Comic Sans MS;fontSize=14;fillColor=#fa6800;fontColor=#000000;strokeColor=#C73500;" vertex="1" parent="1">
                    <mxGeometry x="180" y="800" width="120" height="80" as="geometry"/>
                </mxCell>
            </root>
        </mxGraphModel>
    </diagram>
</mxfile>